<svg width="32" height="32" fill="none" xmlns="http://www.w3.org/2000/svg"><path d="M27.584 18.968V.724c0-.4-.325-.724-.724-.724H8.036a3.624 3.624 0 00-3.62 3.62v24.76A3.624 3.624 0 008.036 32H26.86a.724.724 0 000-1.448h-.408v-4.344h.408c.4 0 .724-.324.724-.724v-6.516zm-1.448 5.792h-4.044l4.044-4.044v4.044zm0-19.268l-4.044-4.044h4.044v4.044zM5.864 3.62c0-1.198.975-2.172 2.172-2.172v17.223a.724.724 0 001.448 0V1.448h10.56l6.092 6.092v11.129l-6.092 6.091H9.484v-3.62a.724.724 0 00-1.448 0v3.62a3.6 3.6 0 00-2.172.726V3.62zm19.14 26.932H8.036a2.174 2.174 0 01-2.172-2.172c0-1.197.975-2.172 2.172-2.172h16.968v4.344z" fill="#000"/></svg>