<svg width="32" height="32" fill="none" xmlns="http://www.w3.org/2000/svg"><path d="M24.313 2.5h-4.715A3.757 3.757 0 0016.063 0a3.757 3.757 0 00-3.536 2.5H7.75A3.754 3.754 0 004 6.25v22A3.754 3.754 0 007.75 32h16.566a3.755 3.755 0 003.747-3.75v-22a3.754 3.754 0 00-3.75-3.75zm-9.5 2.5V3.75a1.25 1.25 0 012.5 0V5h2.5v2.438h-7.5V5h2.5zm10.75 23.25c0 .689-.56 1.25-1.248 1.25H7.75c-.69 0-1.25-.56-1.25-1.25v-22C6.5 5.56 7.06 5 7.75 5h2.063v4.938h12.5V5h2c.689 0 1.25.56 1.25 1.25v22zm-4.738-13.873l1.85 1.683-8.006 8.797-5.288-5.115 1.738-1.797 3.435 3.323 6.271-6.89z" fill="#000"/></svg>