<svg width="32" height="32" fill="none" xmlns="http://www.w3.org/2000/svg"><path d="M26.428 0h-.002a1.71 1.71 0 00-1.685 1.46l-2.478 17.35a1.62 1.62 0 001.214 1.805l.83.208-.446 8.935c-.03.59.178 1.15.586 1.578.407.428.956.664 1.547.664a2.138 2.138 0 002.136-2.136V1.702C28.13.763 27.366 0 26.428 0zm.665 29.864a1.1 1.1 0 11-2.197-.055l.468-9.36a.518.518 0 00-.392-.529l-1.244-.31a.586.586 0 01-.439-.654l2.479-17.348a.668.668 0 01.658-.571h.002c.367 0 .665.298.665.665v28.162zM19.835.492A.519.519 0 0018.8.544l.443 8.855h-1.619V.52a.518.518 0 00-1.037 0V9.4H14.97l.443-8.855a.518.518 0 10-1.036-.051l-.521 10.43a1.632 1.632 0 00.721 1.433l.627.418a.58.58 0 01.26.506l-.488 16.53c-.016.58.198 1.128.603 1.545.405.416.947.645 1.528.645.58 0 1.123-.23 1.528-.645.405-.417.619-.965.603-1.547l-.49-16.528a.584.584 0 01.262-.506l.627-.418c.473-.315.75-.864.72-1.432L19.837.492zm-.774 11.002l-.627.417a1.615 1.615 0 00-.722 1.4l.489 16.527c.008.298-.102.58-.31.794a1.087 1.087 0 01-.785.331 1.09 1.09 0 01-.785-.331 1.086 1.086 0 01-.31-.793l.49-16.529a1.615 1.615 0 00-.723-1.399l-.627-.417a.59.59 0 01-.26-.519l.027-.539h4.377l.026.54a.59.59 0 01-.26.518zM8.26 0C7.18 0 5.683.542 4.694 3.125c-.609 1.589-.825 3.461-.825 4.581a4.36 4.36 0 002.106 3.748c.367.224.58.602.57 1.011l-.423 17.346a2.12 2.12 0 00.607 1.544A2.12 2.12 0 008.26 32a2.12 2.12 0 001.529-.645 2.12 2.12 0 00.607-1.544l-.423-17.345a1.15 1.15 0 01.57-1.012 4.36 4.36 0 002.105-3.748c0-1.12-.216-2.992-.824-4.58C10.834.541 9.339 0 8.259 0zm1.742 10.569a2.204 2.204 0 00-1.066 1.922l.423 17.345c.008.299-.103.581-.312.795a1.092 1.092 0 01-.788.332 1.09 1.09 0 01-.787-.332 1.092 1.092 0 01-.313-.795l.423-17.345a2.204 2.204 0 00-1.066-1.922 3.33 3.33 0 01-1.609-2.863c0-2.176.82-6.67 3.352-6.67 2.533 0 3.352 4.494 3.352 6.67a3.33 3.33 0 01-1.609 2.863z" fill="#000"/></svg>