<svg width="32" height="32" fill="none" xmlns="http://www.w3.org/2000/svg"><path d="M19.026 13.068a1.111 1.111 0 00-1.021-.67l-4.128.006c-.393 0-.742.293-.903.664l-2.142 4.954a1.104 1.104 0 00-.013.85 1.104 1.104 0 001.032.703c.444 0 .845-.263 1.021-.67l.39-.902v9.453a1.225 1.225 0 002.448 0v-6.303h.52v6.303a1.224 1.224 0 002.447 0v-9.593l.45 1.041a1.111 1.111 0 102.04-.882l-2.142-4.954zM15.86 11.99a2.804 2.804 0 002.801-2.801 2.804 2.804 0 00-2.8-2.802 2.805 2.805 0 00-2.802 2.802 2.804 2.804 0 002.802 2.8z" fill="#000"/><path d="M27.483 6.316l-5.035-5C21.679.554 20.336 0 19.253 0H5.833a2.65 2.65 0 00-2.646 2.646v26.708A2.65 2.65 0 005.833 32h20.334a2.65 2.65 0 002.646-2.646V9.51c0-1.086-.56-2.43-1.33-3.194zM5.833 29.354V2.645h13.42c.045 0 .094.005.146.012v4.79a2.65 2.65 0 002.646 2.646h4.123v19.262l-20.336-.001z" fill="#000"/></svg>