<svg width="32" height="32" fill="none" xmlns="http://www.w3.org/2000/svg"><g clip-path="url(#clip0)" fill="#000"><path d="M30.935 7.33a3.44 3.44 0 00-2.524-1.064h-5.05v-.06c0-.761-.304-1.491-.821-1.978a2.783 2.783 0 00-1.977-.821h-9.126a2.802 2.802 0 00-2.829 2.798v.061H3.59a3.44 3.44 0 00-2.524 1.065A3.608 3.608 0 000 9.855v15.149a3.44 3.44 0 001.065 2.524 3.61 3.61 0 002.524 1.065h24.822a3.44 3.44 0 002.524-1.064c.64-.64 1.065-1.552 1.065-2.525V9.855a3.44 3.44 0 00-1.065-2.524zm-.517 17.674h-.03c0 .547-.213 1.034-.578 1.399a1.953 1.953 0 01-1.4.578H3.59a1.953 1.953 0 01-1.4-.578 1.953 1.953 0 01-.578-1.4V9.856c0-.547.213-1.034.578-1.399a1.953 1.953 0 011.4-.578h5.87a.818.818 0 00.821-.821v-.882c0-.335.122-.639.335-.852.213-.213.517-.334.852-.334h9.095c.334 0 .639.121.851.334.213.213.335.517.335.852v.882c0 .456.365.821.821.821h5.871c.548 0 1.034.213 1.4.578.364.365.577.852.577 1.4v15.148z"/><path d="M16 9.947a7.496 7.496 0 00-5.293 2.19 7.423 7.423 0 00-2.19 5.293c0 2.068.852 3.954 2.19 5.292A7.423 7.423 0 0016 24.912a7.496 7.496 0 005.293-2.19 7.423 7.423 0 002.19-5.292 7.496 7.496 0 00-2.19-5.293A7.496 7.496 0 0016 9.947zm4.137 11.65C19.072 22.63 17.612 23.3 16 23.3c-1.612 0-3.072-.669-4.137-1.703a5.815 5.815 0 01-1.703-4.137c0-1.612.669-3.072 1.703-4.137A5.815 5.815 0 0116 11.62c1.612 0 3.072.669 4.137 1.703a5.815 5.815 0 011.703 4.137c.03 1.612-.639 3.072-1.703 4.137zm6.692-8.7a1.49 1.49 0 100-2.98 1.49 1.49 0 000 2.98z"/></g><defs><clipPath id="clip0"><path fill="#fff" d="M0 0h32v32H0z"/></clipPath></defs></svg>